<svg width="14" height="20" viewBox="0 0 14 20" fill="none" xmlns="http://www.w3.org/2000/svg">
<path d="M12.8446 2.17586C12.6726 1.91244 12.4213 1.90488 12.135 1.89626C12.1026 1.89528 12.0697 1.89429 12.0364 1.89291C12.011 1.89175 11.9831 1.8922 11.9538 1.89267C11.8377 1.89453 11.7019 1.89671 11.6334 1.79914C11.5541 1.68601 11.5616 1.46739 11.5678 1.2869C11.5698 1.22987 11.5716 1.17662 11.5706 1.13174C11.5594 0.712479 11.5361 0.267118 11.3743 0.118234C11.2523 0.00652894 10.8872 0.0220042 10.5504 0.036276C10.4413 0.0409026 10.3351 0.0454027 10.2412 0.0454027H3.0741C2.9298 0.0454027 2.77854 0.0336525 2.62991 0.0221072C2.34031 -0.000389202 2.06073 -0.0221072 1.86219 0.0454027C1.57405 0.143857 1.55454 0.661217 1.53617 1.14839L1.53518 1.1746C1.51976 1.57678 1.42009 1.88711 1.08976 1.85585C0.705566 1.82008 0.323269 1.8088 0.149562 2.15652C-0.0555899 2.56793 -0.0132795 2.99858 0.0625048 3.76995C0.0733301 3.88014 0.0848385 3.99728 0.0964062 4.1223H12.9555C12.9628 4.03092 12.9706 3.9407 12.9783 3.85195C13.0386 3.15796 13.091 2.55329 12.8446 2.17586Z" fill="#8047F8"/>
<path fill-rule="evenodd" clip-rule="evenodd" d="M1.09783 4.88734C1.29866 7.60547 1.49731 10.3267 1.69595 13.048L1.69607 13.0496C1.80393 14.5272 1.91179 16.0048 2.02 17.4819H2.4303C2.45826 17.7131 2.49025 17.9985 2.52398 18.2995C2.59244 18.9104 2.66808 19.5853 2.73167 20H2.77705C3.19498 19.8471 6.08416 18.6121 6.08545 13.6956C6.08492 13.6815 6.08539 13.6675 6.08684 13.6536H5.37305C5.3385 13.6533 5.305 13.6417 5.27772 13.6208C5.25045 13.5998 5.23089 13.5705 5.22207 13.5375C5.15251 13.3657 5.09643 13.1888 5.05432 13.0085C4.6344 13.2457 4.30094 13.6078 4.10146 14.0433C3.9121 13.5973 3.88732 13.0996 4.03144 12.6374C4.17556 12.1751 4.47942 11.7776 4.88991 11.5143C4.8952 10.0796 5.43236 8.69667 6.39972 7.62716L6.41482 7.61389C6.44293 7.58958 6.47893 7.57605 6.51626 7.57575C6.53785 7.57593 6.55917 7.58054 6.57887 7.58929C6.59881 7.59815 6.61665 7.61105 6.63122 7.62716C7.60988 8.69812 8.1442 10.0944 8.12761 11.5375C8.54577 11.7935 8.85581 12.1907 9.0002 12.6555C9.14458 13.1203 9.11349 13.621 8.91271 14.0649C8.7143 13.6287 8.38057 13.2662 7.95985 13.0301C7.93415 13.2048 7.88682 13.3758 7.81894 13.5392C7.79545 13.6088 7.74848 13.6536 7.70151 13.6536H6.94029C6.94149 13.6619 6.94234 13.6703 6.94283 13.6787L6.94312 13.6807V13.6847C6.94339 13.692 6.9434 13.6992 6.94314 13.7065C6.95356 18.7642 10.0254 19.9122 10.2843 20H10.3729C10.3955 19.6016 10.4691 19.0519 10.5409 18.5161C10.5903 18.1467 10.6389 17.784 10.6693 17.4819H11.0843C11.2172 15.6213 11.3538 13.766 11.4904 11.9106L11.4905 11.9096L11.4905 11.909C11.6653 9.53579 11.8401 7.16247 12.007 4.7781H1.12441C1.09308 4.78422 1.09522 4.83546 1.09783 4.88734ZM6.51626 7.57575L6.51547 7.57575H6.51715L6.51626 7.57575Z" fill="#8047F8"/>
</svg>
